CodaCaption-Regular.ufo
<glyph name="quotedbl" format="1">
  <advance width="705"/>
  <unicode hex="0022"/>
  <outline>
    <contour>
      <point x="513" y="930" type="curve" smooth="yes"/>
      <point x="512" y="930"/>
      <point x="523" y="926"/>
      <point x="523" y="924" type="curve" smooth="yes"/>
      <point x="523" y="924"/>
      <point x="594" y="1293"/>
      <point x="594" y="1374" type="curve" smooth="yes"/>
      <point x="594" y="1455"/>
      <point x="566" y="1494"/>
      <point x="512" y="1494" type="curve" smooth="yes"/>
      <point x="439" y="1494"/>
      <point x="428" y="1454"/>
      <point x="428" y="1358" type="curve" smooth="yes"/>
      <point x="428" y="1282"/>
      <point x="499" y="941"/>
      <point x="501" y="931" type="curve"/>
      <point x="501" y="932"/>
      <point x="513" y="930"/>
    </contour>
    <contour>
      <point x="209" y="930" type="curve"/>
      <point x="209" y="930"/>
      <point x="220" y="926"/>
      <point x="220" y="924" type="curve" smooth="yes"/>
      <point x="220" y="924"/>
      <point x="291" y="1293"/>
      <point x="291" y="1374" type="curve" smooth="yes"/>
      <point x="291" y="1455"/>
      <point x="263" y="1494"/>
      <point x="208" y="1494" type="curve" smooth="yes"/>
      <point x="136" y="1494"/>
      <point x="124" y="1454"/>
      <point x="124" y="1358" type="curve" smooth="yes"/>
      <point x="124" y="1281"/>
      <point x="197" y="931"/>
      <point x="197" y="931" type="curve" smooth="yes"/>
      <point x="197" y="933"/>
      <point x="209" y="930"/>
    </contour>
  </outline>
</glyph>
<glyph name="dollar" format="1">
  <advance width="1313"/>
  <unicode hex="0024"/>
  <outline>
    <component base="S"/>
    <contour>
      <point x="614" y="1742" type="line"/>
      <point x="614" y="1427" type="line"/>
      <point x="707" y="1427" type="line"/>
      <point x="707" y="1742" type="line"/>
    </contour>
    <contour>
      <point x="614" y="48" type="line"/>
      <point x="614" y="-267" type="line"/>
      <point x="707" y="-267" type="line"/>
      <point x="707" y="48" type="line"/>
    </contour>
  </outline>
</glyph>
<glyph name="asterisk" format="1">
  <advance width="1162"/>
  <unicode hex="002A"/>
  <outline>
    <contour>
      <point x="397.887" y="1436.03" type="curve" smooth="yes"/>
      <point x="343.526" y="1436.03"/>
      <point x="315" y="1389.65"/>
      <point x="315" y="1344" type="curve" smooth="yes"/>
      <point x="315" y="1309"/>
      <point x="399" y="1198"/>
      <point x="570" y="1011" type="curve"/>
      <point x="497" y="1030"/>
      <point x="315" y="1095"/>
      <point x="236" y="1095" type="curve" smooth="yes"/>
      <point x="170" y="1095"/>
      <point x="138" y="1067"/>
      <point x="138" y="1008" type="curve" smooth="yes"/>
      <point x="138" y="948"/>
      <point x="172" y="920"/>
      <point x="238" y="920" type="curve" smooth="yes"/>
      <point x="313" y="920"/>
      <point x="444" y="964"/>
      <point x="570" y="1002" type="curve"/>
      <point x="432" y="847"/>
      <point x="325" y="738"/>
      <point x="325" y="651" type="curve" smooth="yes"/>
      <point x="325" y="618"/>
      <point x="367" y="581"/>
      <point x="401" y="581" type="curve" smooth="yes"/>
      <point x="492" y="581"/>
      <point x="508" y="719"/>
      <point x="584" y="995" type="curve"/>
      <point x="615" y="862"/>
      <point x="651" y="689"/>
      <point x="708" y="616" type="curve" smooth="yes"/>
      <point x="728.175" y="589.772"/>
      <point x="751.177" y="579.035"/>
      <point x="772.823" y="579.035" type="curve" smooth="yes"/>
      <point x="815.552" y="579.035"/>
      <point x="853" y="620.874"/>
      <point x="853" y="668" type="curve" smooth="yes"/>
      <point x="853" y="703"/>
      <point x="766" y="814"/>
      <point x="598" y="1002" type="curve"/>
      <point x="677" y="979"/>
      <point x="844" y="920"/>
      <point x="924" y="920" type="curve" smooth="yes"/>
      <point x="992" y="920"/>
      <point x="1026" y="948"/>
      <point x="1026" y="1008" type="curve" smooth="yes"/>
      <point x="1026" y="1067"/>
      <point x="994" y="1095"/>
      <point x="928" y="1095" type="curve" smooth="yes"/>
      <point x="849" y="1095"/>
      <point x="782" y="1067"/>
      <point x="598" y="1011" type="curve"/>
      <point x="806" y="1234"/>
      <point x="839" y="1299"/>
      <point x="839" y="1353" type="curve" smooth="yes"/>
      <point x="839" y="1394.46"/>
      <point x="803.615" y="1436.02"/>
      <point x="763.452" y="1436.02" type="curve" smooth="yes"/>
      <point x="632.702" y="1436.02"/>
      <point x="594.957" y="1057.85"/>
      <point x="584" y="1019" type="curve"/>
      <point x="540.289" y="1211.72"/>
      <point x="492.631" y="1436.03"/>
    </contour>
  </outline>
</glyph>
<glyph name="comma" format="1">
  <advance width="562"/>
  <unicode hex="002C"/>
  <outline>
    <contour>
      <point x="186" y="-231" type="curve" smooth="yes"/>
      <point x="324" y="-231"/>
      <point x="439" y="-40"/>
      <point x="439" y="128" type="curve" smooth="yes"/>
      <point x="439" y="221"/>
      <point x="387" y="304"/>
      <point x="300" y="304" type="curve" smooth="yes"/>
      <point x="208" y="304"/>
      <point x="155" y="235"/>
      <point x="155" y="151" type="curve" smooth="yes"/>
      <point x="155" y="70.5645"/>
      <point x="212.195" y="-0.0107422"/>
      <point x="296.228" y="-0.0107422" type="curve" smooth="yes"/>
      <point x="296.817" y="-0.0107422"/>
      <point x="297.408" y="-0.00683594"/>
      <point x="298" y="0" type="curve"/>
      <point x="298" y="-90"/>
      <point x="214" y="-161"/>
      <point x="125" y="-161" type="curve"/>
      <point x="125" y="-227" type="line"/>
      <point x="136" y="-230"/>
      <point x="156" y="-231"/>
    </contour>
  </outline>
</glyph>
<glyph name="period" format="1">
  <advance width="523"/>
  <unicode hex="002E"/>
  <outline>
    <contour>
      <point x="264" y="-31" type="curve" smooth="yes"/>
      <point x="333" y="-31"/>
      <point x="400" y="16"/>
      <point x="400" y="114" type="curve" smooth="yes"/>
      <point x="400" y="208"/>
      <point x="327" y="258"/>
      <point x="257" y="258" type="curve" smooth="yes"/>
      <point x="189" y="258"/>
      <point x="122" y="211"/>
      <point x="122" y="114" type="curve" smooth="yes"/>
      <point x="122" y="19"/>
      <point x="194" y="-31"/>
    </contour>
  </outline>
</glyph>
<glyph name="two" format="1">
  <advance width="1283"/>
  <unicode hex="0032"/>
  <outline>
    <contour>
      <point x="197" y="0" type="line"/>
      <point x="1049" y="0" type="line"/>
      <point x="1049" y="138" type="line"/>
      <point x="366" y="138" type="line"/>
      <point x="366" y="353"/>
      <point x="412" y="380"/>
      <point x="622" y="512" type="curve" smooth="yes"/>
      <point x="908" y="691"/>
      <point x="1077" y="747"/>
      <point x="1077" y="1100" type="curve" smooth="yes"/>
      <point x="1077" y="1422"/>
      <point x="957" y="1505"/>
      <point x="629" y="1505" type="curve" smooth="yes"/>
      <point x="321" y="1505"/>
      <point x="198" y="1422"/>
      <point x="198" y="1195" type="curve" smooth="yes"/>
      <point x="198" y="1170" type="line"/>
      <point x="347" y="1133" type="line"/>
      <point x="357" y="1245"/>
      <point x="357" y="1292"/>
      <point x="402" y="1327" type="curve" smooth="yes"/>
      <point x="448" y="1363"/>
      <point x="540" y="1374"/>
      <point x="645" y="1374" type="curve" smooth="yes"/>
      <point x="766" y="1374"/>
      <point x="831" y="1354"/>
      <point x="863" y="1307" type="curve" smooth="yes"/>
      <point x="895" y="1261"/>
      <point x="910" y="1203"/>
      <point x="910" y="1104" type="curve" smooth="yes"/>
      <point x="910" y="808"/>
      <point x="800" y="805"/>
      <point x="540" y="640" type="curve" smooth="yes"/>
      <point x="334" y="511"/>
      <point x="197" y="450"/>
      <point x="197" y="128" type="curve" smooth="yes"/>
    </contour>
  </outline>
</glyph>
<glyph name="three" format="1">
  <advance width="1283"/>
  <unicode hex="0033"/>
  <outline>
    <contour>
      <point x="601" y="-20" type="curve" smooth="yes"/>
      <point x="919" y="-20"/>
      <point x="1091" y="34"/>
      <point x="1091" y="393" type="curve" smooth="yes"/>
      <point x="1091" y="707"/>
      <point x="1004" y="740"/>
      <point x="921" y="766" type="curve"/>
      <point x="995" y="786"/>
      <point x="1082" y="800"/>
      <point x="1082" y="1148" type="curve" smooth="yes"/>
      <point x="1082" y="1404"/>
      <point x="942" y="1505"/>
      <point x="636" y="1505" type="curve" smooth="yes"/>
      <point x="252" y="1505"/>
      <point x="156" y="1426"/>
      <point x="157" y="1211" type="curve"/>
      <point x="157" y="1165" type="line"/>
      <point x="311" y="1154" type="line"/>
      <point x="311" y="1281"/>
      <point x="321" y="1309"/>
      <point x="338" y="1327" type="curve" smooth="yes"/>
      <point x="374" y="1365"/>
      <point x="493" y="1373"/>
      <point x="636" y="1373" type="curve" smooth="yes"/>
      <point x="886" y="1373"/>
      <point x="908" y="1324"/>
      <point x="908" y="1133" type="curve" smooth="yes"/>
      <point x="908" y="916"/>
      <point x="904" y="835"/>
      <point x="850" y="835" type="curve" smooth="yes"/>
      <point x="489" y="835" type="line"/>
      <point x="497" y="698" type="line"/>
      <point x="857" y="695" type="line" smooth="yes"/>
      <point x="904" y="695"/>
      <point x="916" y="656"/>
      <point x="916" y="423" type="curve" smooth="yes"/>
      <point x="916" y="172"/>
      <point x="900" y="111"/>
      <point x="605" y="111" type="curve" smooth="yes"/>
      <point x="456" y="111"/>
      <point x="355" y="118"/>
      <point x="320" y="164" type="curve" smooth="yes"/>
      <point x="293.867" y="198.533"/>
      <point x="292.996" y="230.453"/>
      <point x="292.996" y="315.047" type="curve" smooth="yes"/>
      <point x="292.996" y="321.089"/>
      <point x="293" y="327.4"/>
      <point x="293" y="334" type="curve"/>
      <point x="139" y="319" type="line"/>
      <point x="138" y="248" type="line" smooth="yes"/>
      <point x="137.976" y="246.198"/>
      <point x="137.964" y="244.408"/>
      <point x="137.964" y="242.63" type="curve" smooth="yes"/>
      <point x="137.964" y="24.2758"/>
      <point x="320.287" y="-20"/>
    </contour>
  </outline>
</glyph>
<glyph name="four" format="1">
  <advance width="1283"/>
  <unicode hex="0034"/>
  <outline>
    <contour>
      <point x="673" y="1485" type="line"/>
      <point x="144" y="533" type="line"/>
      <point x="144" y="396" type="line"/>
      <point x="823" y="396" type="line"/>
      <point x="823" y="0" type="line"/>
      <point x="998" y="0" type="line"/>
      <point x="998" y="1021" type="line"/>
      <point x="823" y="1021" type="line"/>
      <point x="823" y="517" type="line"/>
      <point x="325" y="517" type="line"/>
      <point x="425" y="716" type="line"/>
      <point x="856" y="1485" type="line"/>
    </contour>
  </outline>
</glyph>
<glyph name="seven" format="1">
  <advance width="1283"/>
  <unicode hex="0037"/>
  <outline>
    <contour>
      <point x="410" y="0" type="line"/>
      <point x="596" y="0" type="line"/>
      <point x="1112" y="1321" type="line"/>
      <point x="1112" y="1485" type="line"/>
      <point x="207" y="1485" type="line"/>
      <point x="207" y="1340" type="line"/>
      <point x="935" y="1340" type="line"/>
    </contour>
  </outline>
</glyph>
<glyph name="equal" format="1">
  <advance width="1118"/>
  <unicode hex="003D"/>
  <outline>
    <contour>
      <point x="141" y="699" type="line"/>
      <point x="975" y="699" type="line"/>
      <point x="975" y="880" type="line"/>
      <point x="141" y="880" type="line"/>
    </contour>
    <contour>
      <point x="141" y="330" type="line"/>
      <point x="975" y="330" type="line"/>
      <point x="975" y="511" type="line"/>
      <point x="141" y="511" type="line"/>
    </contour>
  </outline>
</glyph>
<glyph name="greater" format="1">
  <advance width="965"/>
  <unicode hex="003E"/>
  <outline>
    <contour>
      <point x="148" y="246" type="line"/>
      <point x="841" y="679" type="line"/>
      <point x="841" y="822" type="line"/>
      <point x="148" y="1273" type="line"/>
      <point x="148" y="1050" type="line"/>
      <point x="666" y="759" type="line"/>
      <point x="148" y="459" type="line"/>
    </contour>
  </outline>
</glyph>
<glyph name="H" format="1">
  <advance width="1447"/>
  <unicode hex="0048"/>
  <outline>
    <contour>
      <point x="729" y="743" type="move" name="center"/>
    </contour>
    <contour>
      <point x="723" y="0" type="move" name="bot"/>
    </contour>
    <contour>
      <point x="723" y="1487" type="move" name="top"/>
    </contour>
    <contour>
      <point x="1063" y="1485" type="line"/>
      <point x="1063" y="839" type="line"/>
      <point x="383" y="839" type="line"/>
      <point x="383" y="1485" type="line"/>
      <point x="192" y="1485" type="line"/>
      <point x="192" y="0" type="line"/>
      <point x="383" y="0" type="line"/>
      <point x="383" y="684" type="line"/>
      <point x="1063" y="684" type="line"/>
      <point x="1063" y="0" type="line"/>
      <point x="1254" y="0" type="line"/>
      <point x="1254" y="1485" type="line"/>
    </contour>
  </outline>
</glyph>
<glyph name="J" format="1">
  <advance width="747"/>
  <unicode hex="004A"/>
  <outline>
    <contour>
      <point x="374" y="0" type="move" name="bot"/>
    </contour>
    <contour>
      <point x="493" y="1487" type="move" name="top"/>
    </contour>
    <contour>
      <point x="276" y="-9" type="curve" smooth="yes"/>
      <point x="466" y="-9"/>
      <point x="590" y="39"/>
      <point x="590" y="321" type="curve" smooth="yes"/>
      <point x="590" y="1485" type="line"/>
      <point x="399" y="1485" type="line"/>
      <point x="399" y="341" type="line" smooth="yes"/>
      <point x="399" y="200"/>
      <point x="394" y="157"/>
      <point x="265" y="142" type="curve" smooth="yes"/>
      <point x="224" y="137"/>
      <point x="176" y="136"/>
      <point x="106" y="136" type="curve"/>
      <point x="111" y="-2" type="line" smooth="yes"/>
      <point x="111.118" y="-1.94118"/>
      <point x="111.554" y="-1.91349"/>
      <point x="112.284" y="-1.91349" type="curve" smooth="yes"/>
      <point x="123.972" y="-1.91349"/>
      <point x="211.059" y="-9"/>
    </contour>
  </outline>
</glyph>
<glyph name="K" format="1">
  <advance width="1269"/>
  <unicode hex="004B"/>
  <outline>
    <contour>
      <point x="633" y="0" type="move" name="bot"/>
    </contour>
    <contour>
      <point x="633" y="1487" type="move" name="top"/>
    </contour>
    <contour>
      <point x="970" y="1485" type="line"/>
      <point x="773.667" y="1240"/>
      <point x="577.335" y="994.998"/>
      <point x="381" y="750" type="curve"/>
      <point x="382" y="931" type="line"/>
      <point x="382" y="1485" type="line"/>
      <point x="192" y="1485" type="line"/>
      <point x="192" y="0" type="line"/>
      <point x="382" y="0" type="line"/>
      <point x="382" y="592" type="line"/>
      <point x="461" y="683" type="line"/>
      <point x="1033" y="0" type="line"/>
      <point x="1266" y="0" type="line"/>
      <point x="618" y="777" type="line"/>
      <point x="1199" y="1485" type="line"/>
    </contour>
  </outline>
</glyph>
<glyph name="M" format="1">
  <advance width="1761"/>
  <unicode hex="004D"/>
  <outline>
    <contour>
      <point x="882" y="0" type="move" name="bot"/>
    </contour>
    <contour>
      <point x="882" y="1487" type="move" name="top"/>
    </contour>
    <contour>
      <point x="1315" y="1485" type="line"/>
      <point x="885" y="312" type="line"/>
      <point x="884" y="312" type="line"/>
      <point x="446" y="1485" type="line"/>
      <point x="239" y="1485" type="line"/>
      <point x="141" y="0" type="line"/>
      <point x="319" y="0" type="line"/>
      <point x="388" y="1192" type="line"/>
      <point x="389" y="1192" type="line"/>
      <point x="830" y="0" type="line"/>
      <point x="937" y="0" type="line"/>
      <point x="1354" y="1192" type="line"/>
      <point x="1359" y="1192" type="line"/>
      <point x="1430" y="0" type="line"/>
      <point x="1621" y="0" type="line"/>
      <point x="1522" y="1485" type="line"/>
    </contour>
  </outline>
</glyph>
<glyph name="P" format="1">
  <advance width="1293"/>
  <unicode hex="0050"/>
  <outline>
    <contour>
      <point x="652" y="0" type="move" name="bot"/>
    </contour>
    <contour>
      <point x="652" y="1487" type="move" name="top"/>
    </contour>
    <contour>
      <point x="382" y="674" type="line"/>
      <point x="382" y="1339" type="line"/>
      <point x="785" y="1339" type="line" smooth="yes"/>
      <point x="855" y="1339"/>
      <point x="900" y="1330"/>
      <point x="931" y="1305" type="curve" smooth="yes"/>
      <point x="984" y="1263"/>
      <point x="994" y="1191"/>
      <point x="997" y="1016" type="curve" smooth="yes"/>
      <point x="997.001" y="1002.87" type="line" smooth="yes"/>
      <point x="997.001" y="847.43"/>
      <point x="996.054" y="765.595"/>
      <point x="926" y="715" type="curve" smooth="yes"/>
      <point x="888" y="687"/>
      <point x="832" y="674"/>
      <point x="743" y="674" type="curve" smooth="yes"/>
    </contour>
    <contour>
      <point x="192" y="0" type="line"/>
      <point x="382" y="0" type="line"/>
      <point x="382" y="527" type="line"/>
      <point x="787" y="527" type="line" smooth="yes"/>
      <point x="1030" y="527"/>
      <point x="1180" y="580"/>
      <point x="1187" y="987" type="curve"/>
      <point x="1187" y="994" type="line" smooth="yes"/>
      <point x="1187" y="1407"/>
      <point x="1080" y="1485"/>
      <point x="726" y="1485" type="curve" smooth="yes"/>
      <point x="192" y="1485" type="line"/>
    </contour>
  </outline>
</glyph>
<glyph name="X" format="1">
  <advance width="1257"/>
  <unicode hex="0058"/>
  <outline>
    <contour>
      <point x="740" y="750" type="line"/>
      <point x="1201" y="1485" type="line"/>
      <point x="994" y="1485" type="line"/>
      <point x="635" y="919" type="line"/>
      <point x="282" y="1485" type="line"/>
      <point x="85" y="1485" type="line"/>
      <point x="530" y="768" type="line"/>
      <point x="45" y="0" type="line"/>
      <point x="256" y="0" type="line"/>
      <point x="636" y="596" type="line"/>
      <point x="1006" y="0" type="line"/>
      <point x="1208" y="0" type="line"/>
    </contour>
  </outline>
</glyph>
<glyph name="bracketleft" format="1">
  <advance width="705"/>
  <unicode hex="005B"/>
  <outline>
    <contour>
      <point x="200" y="1629" type="line"/>
      <point x="200" y="-270" type="line"/>
      <point x="630" y="-270" type="line"/>
      <point x="630" y="-122" type="line"/>
      <point x="378" y="-122" type="line"/>
      <point x="378" y="1482" type="line"/>
      <point x="630" y="1482" type="line"/>
      <point x="630" y="1629" type="line"/>
    </contour>
  </outline>
</glyph>
<glyph name="underscore" format="1">
  <advance width="847"/>
  <unicode hex="005F"/>
  <outline>
    <contour>
      <point x="6" y="-101" type="line"/>
      <point x="6" y="-221" type="line"/>
      <point x="841" y="-221" type="line"/>
      <point x="841" y="-101" type="line"/>
    </contour>
  </outline>
</glyph>
<glyph name="grave" format="1">
  <advance width="661"/>
  <unicode hex="0060"/>
  <outline>
    <contour>
      <point x="343" y="1091" type="move" name="_top"/>
    </contour>
    <contour>
      <point x="546.99" y="1277.17" type="curve" smooth="yes"/>
      <point x="554.864" y="1277.17"/>
      <point x="558.811" y="1282.09"/>
      <point x="558.811" y="1288.95" type="curve" smooth="yes"/>
      <point x="558.811" y="1290.96"/>
      <point x="558.257" y="1292.74"/>
      <point x="557" y="1294" type="curve"/>
      <point x="562" y="1287"/>
      <point x="303" y="1555"/>
      <point x="266" y="1586" type="curve" smooth="yes"/>
      <point x="243" y="1604"/>
      <point x="216" y="1621"/>
      <point x="184" y="1621" type="curve" smooth="yes"/>
      <point x="119" y="1621"/>
      <point x="83" y="1573"/>
      <point x="83" y="1524" type="curve" smooth="yes"/>
      <point x="83" y="1487"/>
      <point x="104" y="1444"/>
      <point x="152" y="1424" type="curve" smooth="yes"/>
      <point x="175" y="1416"/>
      <point x="548" y="1274"/>
      <point x="542" y="1278" type="curve"/>
      <point x="543.757" y="1277.41"/>
      <point x="545.429" y="1277.17"/>
    </contour>
  </outline>
</glyph>
<glyph name="b" format="1">
  <advance width="1185"/>
  <unicode hex="0062"/>
  <outline>
    <contour>
      <point x="590" y="1091" type="move" name="top"/>
    </contour>
    <contour>
      <point x="609" y="113" type="curve" smooth="yes"/>
      <point x="415" y="113"/>
      <point x="345" y="156"/>
      <point x="345" y="273" type="curve" smooth="yes"/>
      <point x="345" y="745" type="line" smooth="yes"/>
      <point x="345" y="950"/>
      <point x="383" y="973"/>
      <point x="608" y="973" type="curve" smooth="yes"/>
      <point x="863" y="973"/>
      <point x="865" y="931"/>
      <point x="865" y="732" type="curve" smooth="yes"/>
      <point x="865" y="351" type="line" smooth="yes"/>
      <point x="865" y="131"/>
      <point x="827" y="113"/>
    </contour>
    <contour>
      <point x="160" y="1520" type="line"/>
      <point x="160" y="0" type="line"/>
      <point x="329" y="0" type="line"/>
      <point x="347" y="139" type="line"/>
      <point x="383" y="39"/>
      <point x="490" y="-20"/>
      <point x="665" y="-20" type="curve" smooth="yes"/>
      <point x="1003" y="-20"/>
      <point x="1044" y="134"/>
      <point x="1048" y="512" type="curve" smooth="yes"/>
      <point x="1049" y="595" type="line" smooth="yes"/>
      <point x="1049.11" y="606.064"/>
      <point x="1049.17" y="616.986"/>
      <point x="1049.17" y="627.764" type="curve" smooth="yes"/>
      <point x="1049.17" y="920.932"/>
      <point x="1004.88" y="1107"/>
      <point x="648" y="1107" type="curve" smooth="yes"/>
      <point x="479" y="1107"/>
      <point x="389" y="1056"/>
      <point x="345" y="953" type="curve"/>
      <point x="345" y="1520" type="line"/>
    </contour>
  </outline>
</glyph>
<glyph name="i" format="1">
  <advance width="537"/>
  <unicode hex="0069"/>
  <outline>
    <component base="dotaccent" xOffset="55"/>
    <component base="dotlessi" xOffset="24"/>
    <contour>
      <point x="39" y="0" type="move" name="ogonek"/>
    </contour>
  </outline>
</glyph>
<glyph name="m" format="1">
  <advance width="1744"/>
  <unicode hex="006D"/>
  <outline>
    <contour>
      <point x="876" y="0" type="move" name="bot"/>
    </contour>
    <contour>
      <point x="876" y="1091" type="move" name="top"/>
    </contour>
    <contour>
      <point x="928" y="961" type="curve"/>
      <point x="886" y="1075"/>
      <point x="798" y="1107"/>
      <point x="651" y="1107" type="curve" smooth="yes"/>
      <point x="506" y="1107"/>
      <point x="404" y="1081"/>
      <point x="348" y="966" type="curve"/>
      <point x="330" y="1087" type="line"/>
      <point x="160" y="1087" type="line"/>
      <point x="160" y="0" type="line"/>
      <point x="346" y="0" type="line"/>
      <point x="347" y="887" type="line" smooth="yes"/>
      <point x="347" y="963"/>
      <point x="472" y="984"/>
      <point x="562" y="984" type="curve" smooth="yes"/>
      <point x="787" y="984"/>
      <point x="790" y="928"/>
      <point x="790" y="711" type="curve" smooth="yes"/>
      <point x="790" y="0" type="line"/>
      <point x="976" y="0" type="line"/>
      <point x="975" y="773" type="line" smooth="yes"/>
      <point x="975" y="815"/>
      <point x="975" y="852"/>
      <point x="985" y="880" type="curve" smooth="yes"/>
      <point x="1008" y="951"/>
      <point x="1068" y="984"/>
      <point x="1230" y="984" type="curve" smooth="yes"/>
      <point x="1412.02" y="984"/>
      <point x="1413" y="890.053"/>
      <point x="1413" y="651.82" type="curve" smooth="yes"/>
      <point x="1413" y="644" type="line"/>
      <point x="1413" y="0" type="line"/>
      <point x="1599" y="0" type="line"/>
      <point x="1599" y="659" type="line" smooth="yes"/>
      <point x="1599" y="1017"/>
      <point x="1546" y="1107"/>
      <point x="1243" y="1107" type="curve" smooth="yes"/>
      <point x="1082" y="1107"/>
      <point x="980" y="1065"/>
    </contour>
  </outline>
</glyph>
<glyph name="z" format="1">
  <advance width="902"/>
  <unicode hex="007A"/>
  <outline>
    <contour>
      <point x="439" y="0" type="move" name="bot"/>
    </contour>
    <contour>
      <point x="387" y="1091" type="move" name="top"/>
    </contour>
    <contour>
      <point x="144" y="1087" type="line"/>
      <point x="153" y="955" type="line"/>
      <point x="623" y="955" type="line"/>
      <point x="117" y="136" type="line"/>
      <point x="134" y="0" type="line"/>
      <point x="805" y="0" type="line"/>
      <point x="814" y="129" type="line"/>
      <point x="304" y="129" type="line"/>
      <point x="808" y="954" type="line"/>
      <point x="799" y="1087" type="line"/>
    </contour>
  </outline>
</glyph>
<glyph name="bar" format="1">
  <advance width="476"/>
  <unicode hex="007C"/>
  <outline>
    <contour>
      <point x="157" y="1630" type="line"/>
      <point x="157" y="-180" type="line"/>
      <point x="320" y="-180" type="line"/>
      <point x="320" y="1630" type="line"/>
    </contour>
  </outline>
</glyph>
<glyph name="braceright" format="1">
  <advance width="838"/>
  <unicode hex="007D"/>
  <outline>
    <contour>
      <point x="82" y="-205" type="line"/>
      <point x="450" y="-205"/>
      <point x="509" y="-112"/>
      <point x="513" y="282" type="curve" smooth="yes"/>
      <point x="516" y="598"/>
      <point x="586" y="623"/>
      <point x="774" y="623" type="curve"/>
      <point x="774" y="795" type="line"/>
      <point x="586" y="795"/>
      <point x="516" y="821"/>
      <point x="513" y="1137" type="curve" smooth="yes"/>
      <point x="509" y="1531"/>
      <point x="450" y="1624"/>
      <point x="82" y="1624" type="curve"/>
      <point x="82" y="1508" type="line"/>
      <point x="328" y="1508"/>
      <point x="333" y="1460"/>
      <point x="333" y="1133" type="curve" smooth="yes"/>
      <point x="333" y="884"/>
      <point x="361" y="740"/>
      <point x="526" y="709" type="curve"/>
      <point x="361" y="678"/>
      <point x="333" y="534"/>
      <point x="333" y="286" type="curve" smooth="yes"/>
      <point x="333" y="-42"/>
      <point x="328" y="-89"/>
      <point x="82" y="-89" type="curve"/>
    </contour>
  </outline>
</glyph>
<glyph name="currency" format="1">
  <advance width="1166"/>
  <unicode hex="00A4"/>
  <outline>
    <contour>
      <point x="584" y="441" type="curve" smooth="yes"/>
      <point x="366" y="441"/>
      <point x="269" y="543"/>
      <point x="263" y="758" type="curve"/>
      <point x="263" y="986"/>
      <point x="369" y="1099"/>
      <point x="584" y="1099" type="curve" smooth="yes"/>
      <point x="811" y="1099"/>
      <point x="903" y="988"/>
      <point x="905" y="766" type="curve"/>
      <point x="900" y="549"/>
      <point x="795" y="441"/>
    </contour>
    <contour>
      <point x="956" y="220" type="line"/>
      <point x="1020" y="288" type="line"/>
      <point x="880" y="460" type="line"/>
      <point x="959" y="536"/>
      <point x="998" y="638"/>
      <point x="998" y="763" type="curve" smooth="yes"/>
      <point x="998" y="888"/>
      <point x="958" y="989"/>
      <point x="879" y="1063" type="curve"/>
      <point x="1019" y="1236" type="line"/>
      <point x="955" y="1305" type="line"/>
      <point x="802" y="1125" type="line"/>
      <point x="744" y="1162"/>
      <point x="671" y="1181"/>
      <point x="582" y="1181" type="curve" smooth="yes"/>
      <point x="493" y="1181"/>
      <point x="419" y="1161"/>
      <point x="362" y="1122" type="curve"/>
      <point x="211" y="1306" type="line"/>
      <point x="148" y="1237" type="line"/>
      <point x="288" y="1062" type="line"/>
      <point x="211" y="989"/>
      <point x="172" y="889"/>
      <point x="172" y="762" type="curve" smooth="yes"/>
      <point x="172" y="635"/>
      <point x="210" y="533"/>
      <point x="287" y="460" type="curve"/>
      <point x="147" y="288" type="line"/>
      <point x="210" y="219" type="line"/>
      <point x="360" y="400" type="line"/>
      <point x="416.385" y="368.891"/>
      <point x="488.837" y="351.958"/>
      <point x="576.436" y="351.958" type="curve" smooth="yes"/>
      <point x="578.945" y="351.958"/>
      <point x="581.466" y="351.972"/>
      <point x="584" y="352" type="curve" smooth="yes"/>
      <point x="672" y="352"/>
      <point x="746" y="368"/>
      <point x="806" y="400" type="curve"/>
    </contour>
  </outline>
</glyph>
<glyph name="yen" format="1">
  <advance width="1309"/>
  <unicode hex="00A5"/>
  <outline>
    <contour>
      <point x="554" y="0" type="line"/>
      <point x="744" y="0" type="line"/>
      <point x="744" y="259" type="line"/>
      <point x="1019" y="259" type="line"/>
      <point x="1019" y="342" type="line"/>
      <point x="744" y="342" type="line"/>
      <point x="742" y="515" type="line"/>
      <point x="1067" y="515" type="line"/>
      <point x="1067" y="626" type="line"/>
      <point x="794" y="626" type="line"/>
      <point x="1195" y="1485" type="line"/>
      <point x="992" y="1485" type="line"/>
      <point x="656" y="723" type="line"/>
      <point x="327" y="1485" type="line"/>
      <point x="116" y="1485" type="line"/>
      <point x="505" y="626" type="line"/>
      <point x="243" y="626" type="line"/>
      <point x="243" y="515" type="line"/>
      <point x="556" y="515" type="line"/>
      <point x="554" y="342" type="line"/>
      <point x="292" y="342" type="line"/>
      <point x="292" y="259" type="line"/>
      <point x="554" y="259" type="line"/>
    </contour>
  </outline>
</glyph>
<glyph name="section" format="1">
  <advance width="1089"/>
  <unicode hex="00A7"/>
  <outline>
    <contour>
      <point x="734" y="464" type="curve"/>
      <point x="624" y="482"/>
      <point x="545" y="492"/>
      <point x="487" y="502" type="curve" smooth="yes"/>
      <point x="353" y="527"/>
      <point x="336" y="557"/>
      <point x="336" y="707" type="curve" smooth="yes"/>
      <point x="336" y="759"/>
      <point x="345" y="804"/>
      <point x="362" y="868" type="curve"/>
      <point x="392" y="859"/>
      <point x="506" y="848"/>
      <point x="675" y="796" type="curve" smooth="yes"/>
      <point x="744" y="774"/>
      <point x="767" y="737"/>
      <point x="767" y="602" type="curve" smooth="yes"/>
      <point x="767" y="524"/>
      <point x="756" y="481"/>
    </contour>
    <contour>
      <point x="156" y="130" type="line"/>
      <point x="156" y="-134.498"/>
      <point x="254.505" y="-214"/>
      <point x="543" y="-214" type="curve" smooth="yes"/>
      <point x="821" y="-214"/>
      <point x="930" y="-153"/>
      <point x="930" y="116" type="curve" smooth="yes"/>
      <point x="930" y="254"/>
      <point x="899" y="352"/>
      <point x="834" y="410" type="curve"/>
      <point x="902" y="463"/>
      <point x="932" y="542"/>
      <point x="932" y="653" type="curve" smooth="yes"/>
      <point x="932" y="879"/>
      <point x="845" y="926"/>
      <point x="634" y="965" type="curve" smooth="yes"/>
      <point x="356.325" y="1013.61"/>
      <point x="331.884" y="1022.85"/>
      <point x="331.884" y="1127.53" type="curve" smooth="yes"/>
      <point x="331.884" y="1149.89"/>
      <point x="333" y="1176.61"/>
      <point x="333" y="1209" type="curve" smooth="yes"/>
      <point x="333" y="1396.74"/>
      <point x="375.946" y="1412"/>
      <point x="552" y="1412" type="curve" smooth="yes"/>
      <point x="741.873" y="1412"/>
      <point x="778" y="1383.98"/>
      <point x="778" y="1192" type="curve"/>
      <point x="938" y="1192" type="line"/>
      <point x="938" y="1455.94"/>
      <point x="846.22" y="1536"/>
      <point x="554" y="1536" type="curve" smooth="yes"/>
      <point x="272" y="1536"/>
      <point x="173" y="1470"/>
      <point x="173" y="1211" type="curve" smooth="yes"/>
      <point x="173" y="1075"/>
      <point x="203" y="979"/>
      <point x="265" y="921" type="curve"/>
      <point x="199" y="869"/>
      <point x="172" y="793"/>
      <point x="172" y="692" type="curve" smooth="yes"/>
      <point x="172" y="409"/>
      <point x="268" y="373"/>
      <point x="630" y="330" type="curve" smooth="yes"/>
      <point x="742" y="316"/>
      <point x="769" y="254"/>
      <point x="769" y="115" type="curve" smooth="yes"/>
      <point x="769" y="-61.6496"/>
      <point x="740.123" y="-91"/>
      <point x="568" y="-91" type="curve" smooth="yes"/>
      <point x="362.424" y="-91"/>
      <point x="317" y="-81.0395"/>
      <point x="317" y="130" type="curve"/>
    </contour>
  </outline>
</glyph>
<glyph name="dieresis" format="1">
  <advance width="968"/>
  <unicode hex="00A8"/>
  <outline>
    <contour>
      <point x="482" y="1091" type="move" name="_top"/>
    </contour>
    <contour>
      <point x="141" y="1362" type="curve" smooth="yes"/>
      <point x="141" y="1284"/>
      <point x="191" y="1247"/>
      <point x="260" y="1247" type="curve" smooth="yes"/>
      <point x="330" y="1247"/>
      <point x="379" y="1284"/>
      <point x="379" y="1362" type="curve" smooth="yes"/>
      <point x="379" y="1439"/>
      <point x="330" y="1477"/>
      <point x="260" y="1477" type="curve" smooth="yes"/>
      <point x="192" y="1477"/>
      <point x="141" y="1438"/>
    </contour>
    <contour>
      <point x="590" y="1362" type="curve" smooth="yes"/>
      <point x="590" y="1284"/>
      <point x="640" y="1247"/>
      <point x="709" y="1247" type="curve" smooth="yes"/>
      <point x="779" y="1247"/>
      <point x="828" y="1284"/>
      <point x="828" y="1362" type="curve" smooth="yes"/>
      <point x="828" y="1439"/>
      <point x="779" y="1477"/>
      <point x="709" y="1477" type="curve" smooth="yes"/>
      <point x="641" y="1477"/>
      <point x="590" y="1438"/>
    </contour>
  </outline>
</glyph>
<glyph name="logicalnot" format="1">
  <advance width="1183"/>
  <unicode hex="00AC"/>
  <outline>
    <contour>
      <point x="897" y="260" type="line"/>
      <point x="1044" y="260" type="line"/>
      <point x="1044" y="782" type="line"/>
      <point x="125" y="782" type="line"/>
      <point x="125" y="640" type="line"/>
      <point x="897" y="640" type="line"/>
    </contour>
  </outline>
</glyph>
<glyph name="degree" format="1">
  <advance width="858"/>
  <unicode hex="00B0"/>
  <outline>
    <contour>
      <point x="431" y="1045" type="curve" smooth="yes"/>
      <point x="618" y="1045"/>
      <point x="736" y="1149"/>
      <point x="736" y="1320" type="curve" smooth="yes"/>
      <point x="736" y="1489"/>
      <point x="618" y="1593"/>
      <point x="431" y="1593" type="curve" smooth="yes"/>
      <point x="245" y="1593"/>
      <point x="127" y="1489"/>
      <point x="127" y="1320" type="curve" smooth="yes"/>
      <point x="127" y="1149"/>
      <point x="245" y="1045"/>
    </contour>
    <contour>
      <point x="431" y="1152" type="curve" smooth="yes"/>
      <point x="335" y="1152"/>
      <point x="274" y="1216"/>
      <point x="274" y="1319" type="curve" smooth="yes"/>
      <point x="274" y="1420"/>
      <point x="335" y="1484"/>
      <point x="431" y="1484" type="curve" smooth="yes"/>
      <point x="530" y="1484"/>
      <point x="591" y="1420"/>
      <point x="591" y="1319" type="curve" smooth="yes"/>
      <point x="591" y="1216"/>
      <point x="530" y="1152"/>
    </contour>
  </outline>
</glyph>
<glyph name="plusminus" format="1">
  <advance width="1203"/>
  <unicode hex="00B1"/>
  <outline>
    <contour>
      <point x="139" y="0" type="line"/>
      <point x="1065" y="0" type="line"/>
      <point x="1065" y="143" type="line"/>
      <point x="139" y="143" type="line"/>
    </contour>
    <contour>
      <point x="530" y="250" type="line"/>
      <point x="673" y="250" type="line"/>
      <point x="673" y="635" type="line"/>
      <point x="1061" y="635" type="line"/>
      <point x="1061" y="776" type="line"/>
      <point x="673" y="776" type="line"/>
      <point x="673" y="1166" type="line"/>
      <point x="530" y="1166" type="line"/>
      <point x="530" y="776" type="line"/>
      <point x="143" y="776" type="line"/>
      <point x="143" y="635" type="line"/>
      <point x="530" y="635" type="line"/>
    </contour>
  </outline>
</glyph>
<glyph name="twosuperior" format="1">
  <advance width="1208"/>
  <unicode hex="00B2"/>
  <outline>
    <contour>
      <point x="651.247" y="1350.01" type="curve" smooth="yes"/>
      <point x="846.457" y="1350.01"/>
      <point x="876" y="1307.26"/>
      <point x="876" y="1224" type="curve" smooth="yes"/>
      <point x="876" y="1156" type="line" smooth="yes"/>
      <point x="876" y="1060"/>
      <point x="812" y="1039"/>
      <point x="627" y="986" type="curve" smooth="yes"/>
      <point x="341" y="904"/>
      <point x="250" y="817"/>
      <point x="250" y="555" type="curve" smooth="yes"/>
      <point x="250" y="430" type="line"/>
      <point x="1034" y="430" type="line"/>
      <point x="1034" y="569" type="line"/>
      <point x="421" y="569" type="line"/>
      <point x="421" y="694"/>
      <point x="425" y="775"/>
      <point x="649" y="848" type="curve" smooth="yes"/>
      <point x="822" y="902"/>
      <point x="1054" y="930"/>
      <point x="1054" y="1172" type="curve" smooth="yes"/>
      <point x="1054" y="1438"/>
      <point x="910" y="1505"/>
      <point x="648" y="1505" type="curve" smooth="yes"/>
      <point x="405" y="1505"/>
      <point x="243" y="1444"/>
      <point x="243" y="1174" type="curve" smooth="yes"/>
      <point x="243" y="1132" type="line"/>
      <point x="431" y="1153" type="line"/>
      <point x="431" y="1204" type="line" smooth="yes"/>
      <point x="431" y="1285.38"/>
      <point x="445.773" y="1350.01"/>
    </contour>
  </outline>
</glyph>
<glyph name="acute" format="1">
  <advance width="651"/>
  <unicode hex="00B4"/>
  <outline>
    <contour>
      <point x="319" y="1091" type="move" name="_top"/>
    </contour>
    <contour>
      <point x="84.2557" y="1289.01" type="curve" smooth="yes"/>
      <point x="84.2557" y="1282.49"/>
      <point x="88.6402" y="1277.17"/>
      <point x="96.4749" y="1277.17" type="curve" smooth="yes"/>
      <point x="97.9853" y="1277.17"/>
      <point x="99.5355" y="1277.41"/>
      <point x="101" y="1278" type="curve"/>
      <point x="95" y="1274"/>
      <point x="468" y="1416"/>
      <point x="491" y="1424" type="curve" smooth="yes"/>
      <point x="539" y="1444"/>
      <point x="560" y="1487"/>
      <point x="560" y="1524" type="curve" smooth="yes"/>
      <point x="560" y="1573"/>
      <point x="524" y="1621"/>
      <point x="459" y="1621" type="curve" smooth="yes"/>
      <point x="428" y="1621"/>
      <point x="400" y="1604"/>
      <point x="377" y="1586" type="curve" smooth="yes"/>
      <point x="340" y="1555"/>
      <point x="81" y="1287"/>
      <point x="86" y="1294" type="curve"/>
      <point x="84.8167" y="1292.82"/>
      <point x="84.2557" y="1291.01"/>
    </contour>
  </outline>
</glyph>
<glyph name="onesuperior" format="1">
  <advance width="798"/>
  <unicode hex="00B9"/>
  <outline>
    <contour>
      <point x="360" y="380" type="line"/>
      <point x="539" y="380" type="line"/>
      <point x="539" y="1485" type="line"/>
      <point x="433" y="1485" type="line"/>
      <point x="376" y="1450"/>
      <point x="306" y="1430"/>
      <point x="216" y="1430" type="curve"/>
      <point x="216" y="1307" type="line"/>
      <point x="360" y="1307" type="line"/>
    </contour>
  </outline>
</glyph>
<glyph name="threequarters" format="1">
  <advance width="2620"/>
  <unicode hex="00BE"/>
  <outline>
    <contour>
      <point x="588" y="415" type="curve" smooth="yes"/>
      <point x="854" y="415"/>
      <point x="979" y="481"/>
      <point x="979" y="727" type="curve" smooth="yes"/>
      <point x="979" y="835"/>
      <point x="974" y="932"/>
      <point x="880" y="957" type="curve"/>
      <point x="973" y="983"/>
      <point x="977" y="1061"/>
      <point x="977" y="1169" type="curve" smooth="yes"/>
      <point x="977" y="1416"/>
      <point x="908" y="1493"/>
      <point x="587" y="1493" type="curve" smooth="yes"/>
      <point x="245" y="1493"/>
      <point x="173" y="1410"/>
      <point x="173" y="1147" type="curve" smooth="yes"/>
      <point x="173" y="1124" type="line"/>
      <point x="364" y="1124" type="line"/>
      <point x="365" y="1160" type="line" smooth="yes"/>
      <point x="369" y="1336"/>
      <point x="397" y="1358"/>
      <point x="587" y="1358" type="curve" smooth="yes"/>
      <point x="778" y="1358"/>
      <point x="798" y="1324"/>
      <point x="798" y="1183" type="curve" smooth="yes"/>
      <point x="798" y="1145.48"/>
      <point x="798.913" y="1116.34"/>
      <point x="798.913" y="1093.8" type="curve" smooth="yes"/>
      <point x="798.913" y="1034.63"/>
      <point x="792.621" y="1021"/>
      <point x="747" y="1021" type="curve" smooth="yes"/>
      <point x="479" y="1021" type="line"/>
      <point x="479" y="904" type="line"/>
      <point x="747" y="904" type="line" smooth="yes"/>
      <point x="795.016" y="904"/>
      <point x="798.064" y="877.325"/>
      <point x="798.064" y="796.028" type="curve" smooth="yes"/>
      <point x="798.064" y="784.203"/>
      <point x="798" y="771.222"/>
      <point x="798" y="757" type="curve" smooth="yes"/>
      <point x="798" y="611"/>
      <point x="774" y="560"/>
      <point x="603" y="560" type="curve" smooth="yes"/>
      <point x="389.642" y="560"/>
      <point x="362.432" y="603.602"/>
      <point x="362.432" y="732.27" type="curve" smooth="yes"/>
      <point x="362.432" y="744.115"/>
      <point x="362.663" y="756.681"/>
      <point x="363" y="770" type="curve" smooth="yes"/>
      <point x="364" y="797" type="line"/>
      <point x="173" y="797" type="line"/>
      <point x="173" y="759" type="line" smooth="yes"/>
      <point x="173" y="509"/>
      <point x="254" y="415"/>
    </contour>
    <contour>
      <point x="1001" y="0" type="line"/>
      <point x="1131" y="0" type="line"/>
      <point x="1829" y="1523" type="line"/>
      <point x="1600" y="1523" type="line"/>
    </contour>
    <contour>
      <point x="2258" y="0" type="line"/>
      <point x="2441" y="0" type="line"/>
      <point x="2441" y="693" type="line"/>
      <point x="2258" y="693" type="line"/>
      <point x="2258" y="401" type="line"/>
      <point x="1870" y="401" type="line"/>
      <point x="1870" y="414" type="line"/>
      <point x="2215" y="1105" type="line"/>
      <point x="2046" y="1105" type="line"/>
      <point x="1670" y="400" type="line"/>
      <point x="1670" y="256" type="line"/>
      <point x="2258" y="256" type="line"/>
    </contour>
  </outline>
</glyph>
<glyph name="multiply" format="1">
  <advance width="955"/>
  <unicode hex="00D7"/>
  <outline>
    <contour>
      <point x="252" y="302" type="curve"/>
      <point x="477" y="551" type="line"/>
      <point x="703" y="302" type="line"/>
      <point x="814" y="422" type="line"/>
      <point x="592" y="671" type="line"/>
      <point x="814" y="920" type="line"/>
      <point x="703" y="1040" type="line"/>
      <point x="477" y="791" type="line"/>
      <point x="252" y="1040" type="line"/>
      <point x="184" y="963"/>
      <point x="168" y="950"/>
      <point x="140" y="920" type="curve"/>
      <point x="355" y="675"/>
      <point x="355" y="679"/>
      <point x="363" y="671" type="curve"/>
      <point x="140" y="422" type="line"/>
      <point x="208" y="346"/>
      <point x="224" y="333"/>
    </contour>
  </outline>
</glyph>
<glyph name="Oslash" format="1">
  <advance width="1446"/>
  <unicode hex="00D8"/>
  <outline>
    <component base="O" xOffset="8"/>
    <contour>
      <point x="860" y="1595" type="move" name="top"/>
    </contour>
    <contour>
      <point x="267" y="-174" type="line"/>
      <point x="432" y="87" type="line"/>
      <point x="316" y="166" type="line"/>
      <point x="148" y="-100" type="line"/>
    </contour>
    <contour>
      <point x="1153" y="1328" type="line"/>
      <point x="1340" y="1616" type="line"/>
      <point x="1217" y="1688" type="line"/>
      <point x="1025" y="1392" type="line"/>
    </contour>
  </outline>
</glyph>
<glyph name="eth" format="1">
  <advance width="1261"/>
  <unicode hex="00F0"/>
  <outline>
    <contour>
      <point x="643" y="97" type="curve" smooth="yes"/>
      <point x="365" y="97"/>
      <point x="324" y="104"/>
      <point x="324" y="213" type="curve" smooth="yes"/>
      <point x="325" y="708" type="line" smooth="yes"/>
      <point x="325" y="824"/>
      <point x="349" y="839"/>
      <point x="646" y="839" type="curve" smooth="yes"/>
      <point x="908" y="839"/>
      <point x="922" y="773"/>
      <point x="922" y="642" type="curve" smooth="yes"/>
      <point x="922" y="202" type="line" smooth="yes"/>
      <point x="922" y="114"/>
      <point x="920" y="97"/>
    </contour>
    <contour>
      <point x="645" y="-23" type="curve" smooth="yes"/>
      <point x="999" y="-23"/>
      <point x="1109" y="46"/>
      <point x="1109" y="434" type="curve" smooth="yes"/>
      <point x="1109" y="455.878"/>
      <point x="1109.01" y="477.295"/>
      <point x="1109.01" y="498.263" type="curve" smooth="yes"/>
      <point x="1109.01" y="991.006"/>
      <point x="1105.33" y="1235.27"/>
      <point x="925" y="1359" type="curve"/>
      <point x="1083" y="1519" type="line"/>
      <point x="1023" y="1576" type="line"/>
      <point x="848" y="1398" type="line"/>
      <point x="735" y="1445"/>
      <point x="573" y="1466"/>
      <point x="341" y="1477" type="curve"/>
      <point x="329" y="1370" type="line"/>
      <point x="537" y="1353"/>
      <point x="670" y="1346"/>
      <point x="757" y="1307" type="curve"/>
      <point x="612" y="1160" type="line"/>
      <point x="672" y="1103" type="line"/>
      <point x="826" y="1259" type="line"/>
      <point x="891" y="1186"/>
      <point x="908" y="1054"/>
      <point x="922" y="802" type="curve"/>
      <point x="902" y="907"/>
      <point x="781" y="959"/>
      <point x="550" y="959" type="curve" smooth="yes"/>
      <point x="246" y="959"/>
      <point x="144" y="850"/>
      <point x="143" y="601" type="curve" smooth="yes"/>
      <point x="142" y="374" type="line"/>
      <point x="142" y="55"/>
      <point x="236" y="-23"/>
    </contour>
  </outline>
</glyph>
<glyph name="Eng" format="1">
  <advance width="1411"/>
  <unicode hex="014A"/>
  <outline>
    <contour>
      <point x="815" y="-395" type="line"/>
      <point x="1149" y="-395"/>
      <point x="1251" y="-297"/>
      <point x="1251" y="3" type="curve" smooth="yes"/>
      <point x="1251" y="1485" type="line"/>
      <point x="1081" y="1485" type="line"/>
      <point x="1081" y="333" type="line"/>
      <point x="356" y="1485" type="line"/>
      <point x="160" y="1485" type="line"/>
      <point x="160" y="0" type="line"/>
      <point x="330" y="0" type="line"/>
      <point x="330" y="1200" type="line"/>
      <point x="1083" y="43" type="line"/>
      <point x="1083" y="-88" type="line" smooth="yes"/>
      <point x="1083.04" y="-91.8881"/>
      <point x="1083.06" y="-95.7231"/>
      <point x="1083.06" y="-99.5035" type="curve" smooth="yes"/>
      <point x="1083.06" y="-196.843"/>
      <point x="1066.62" y="-258"/>
      <point x="825" y="-258" type="curve"/>
    </contour>
  </outline>
</glyph>
<glyph name="oe" format="1">
  <advance width="1839"/>
  <unicode hex="0153"/>
  <outline>
    <contour>
      <point x="1034" y="649" type="line"/>
      <point x="1036" y="717"/>
      <point x="1033" y="803"/>
      <point x="1052" y="874" type="curve" smooth="yes"/>
      <point x="1072" y="954"/>
      <point x="1092" y="974"/>
      <point x="1295" y="974" type="curve" smooth="yes"/>
      <point x="1470" y="974"/>
      <point x="1523" y="953"/>
      <point x="1530" y="867" type="curve" smooth="yes"/>
      <point x="1536" y="787"/>
      <point x="1539" y="721"/>
      <point x="1540" y="649" type="curve"/>
    </contour>
    <contour>
      <point x="589" y="113" type="curve" smooth="yes"/>
      <point x="407" y="113"/>
      <point x="329" y="132"/>
      <point x="329" y="209" type="curve" smooth="yes"/>
      <point x="328" y="873" type="line" smooth="yes"/>
      <point x="328" y="972"/>
      <point x="466" y="972"/>
      <point x="588" y="972" type="curve" smooth="yes"/>
      <point x="711" y="972"/>
      <point x="848" y="972"/>
      <point x="848" y="873" type="curve" smooth="yes"/>
      <point x="847" y="209" type="line" smooth="yes"/>
      <point x="847" y="130"/>
      <point x="771" y="113"/>
    </contour>
    <contour>
      <point x="1304" y="-20" type="curve" smooth="yes"/>
      <point x="1568" y="-20"/>
      <point x="1688" y="16"/>
      <point x="1694" y="223" type="curve"/>
      <point x="1696" y="313" type="line"/>
      <point x="1554" y="321" type="line"/>
      <point x="1544" y="207" type="line" smooth="yes"/>
      <point x="1539" y="145"/>
      <point x="1489" y="113"/>
      <point x="1313" y="113" type="curve" smooth="yes"/>
      <point x="1107" y="113"/>
      <point x="1046" y="134"/>
      <point x="1041" y="228" type="curve" smooth="yes"/>
      <point x="1035" y="338"/>
      <point x="1034" y="429"/>
      <point x="1033" y="547" type="curve"/>
      <point x="1721" y="547" type="line"/>
      <point x="1726" y="613" type="line"/>
      <point x="1721" y="1014"/>
      <point x="1678" y="1107"/>
      <point x="1296" y="1107" type="curve" smooth="yes"/>
      <point x="1115" y="1107"/>
      <point x="1007" y="1078"/>
      <point x="942" y="991" type="curve"/>
      <point x="878" y="1080"/>
      <point x="772" y="1107"/>
      <point x="588" y="1107" type="curve" smooth="yes"/>
      <point x="177" y="1107"/>
      <point x="132" y="1019"/>
      <point x="132" y="567" type="curve" smooth="yes"/>
      <point x="132" y="107"/>
      <point x="149" y="-20"/>
      <point x="587" y="-20" type="curve" smooth="yes"/>
      <point x="774" y="-20"/>
      <point x="881" y="12"/>
      <point x="943" y="104" type="curve"/>
      <point x="1012" y="10"/>
      <point x="1124" y="-20"/>
    </contour>
  </outline>
</glyph>
<glyph name="dotlessj" format="1">
  <advance width="557"/>
  <unicode hex="0237"/>
  <outline>
    <contour>
      <point x="313" y="1091" type="move" name="top"/>
    </contour>
    <contour>
      <point x="219" y="1087" type="line"/>
      <point x="219" y="-64" type="line" smooth="yes"/>
      <point x="219" y="-194"/>
      <point x="134" y="-173"/>
      <point x="50" y="-177" type="curve"/>
      <point x="55" y="-293" type="line"/>
      <point x="92" y="-298"/>
      <point x="127" y="-301"/>
      <point x="156" y="-301" type="curve" smooth="yes"/>
      <point x="351" y="-301"/>
      <point x="404" y="-200"/>
      <point x="404" y="59" type="curve" smooth="yes"/>
      <point x="404" y="1087" type="line"/>
    </contour>
  </outline>
</glyph>
<glyph name="apostrophemod" format="1">
  <advance width="588"/>
  <unicode hex="02BC"/>
  <outline>
    <contour>
      <point x="49" y="1348" type="curve" smooth="yes"/>
      <point x="185" y="1348"/>
      <point x="302" y="1539"/>
      <point x="302" y="1707" type="curve" smooth="yes"/>
      <point x="302" y="1801"/>
      <point x="250" y="1883"/>
      <point x="163" y="1883" type="curve" smooth="yes"/>
      <point x="70" y="1883"/>
      <point x="18" y="1814"/>
      <point x="18" y="1730" type="curve" smooth="yes"/>
      <point x="18" y="1649"/>
      <point x="76" y="1579"/>
      <point x="161" y="1579" type="curve"/>
      <point x="161" y="1490"/>
      <point x="77" y="1418"/>
      <point x="-12" y="1418" type="curve"/>
      <point x="-12" y="1352" type="line"/>
      <point x="-1" y="1349"/>
      <point x="19" y="1348"/>
    </contour>
  </outline>
</glyph>
<glyph name="breve" format="1">
  <advance width="724"/>
  <unicode hex="02D8"/>
  <outline>
    <contour>
      <point x="359" y="1091" type="move" name="_top"/>
    </contour>
    <contour>
      <point x="499" y="1563" type="line"/>
      <point x="499" y="1444"/>
      <point x="453" y="1389"/>
      <point x="354" y="1389" type="curve" smooth="yes"/>
      <point x="256" y="1389"/>
      <point x="210" y="1444"/>
      <point x="210" y="1563" type="curve"/>
      <point x="74" y="1563" type="line"/>
      <point x="74" y="1362"/>
      <point x="162" y="1270"/>
      <point x="354" y="1270" type="curve" smooth="yes"/>
      <point x="547" y="1270"/>
      <point x="635" y="1362"/>
      <point x="635" y="1563" type="curve"/>
    </contour>
  </outline>
</glyph>
<glyph name="dotaccent" format="1">
  <advance width="427"/>
  <unicode hex="02D9"/>
  <outline>
    <contour>
      <point x="212" y="1091" type="move" name="_top"/>
    </contour>
    <contour>
      <point x="212" y="1384" type="curve" smooth="yes"/>
      <point x="279" y="1384"/>
      <point x="345" y="1419"/>
      <point x="345" y="1517" type="curve" smooth="yes"/>
      <point x="345" y="1611"/>
      <point x="280" y="1649"/>
      <point x="212" y="1649" type="curve" smooth="yes"/>
      <point x="147" y="1649"/>
      <point x="81" y="1614"/>
      <point x="81" y="1517" type="curve" smooth="yes"/>
      <point x="81" y="1423"/>
      <point x="145" y="1384"/>
    </contour>
  </outline>
</glyph>
<glyph name="ring" format="1">
  <advance width="732"/>
  <unicode hex="02DA"/>
  <outline>
    <contour>
      <point x="363" y="1091" type="move" name="_top"/>
    </contour>
    <contour>
      <point x="476" y="1474" type="curve" smooth="yes"/>
      <point x="476" y="1384"/>
      <point x="439" y="1343"/>
      <point x="362" y="1343" type="curve" smooth="yes"/>
      <point x="284" y="1343"/>
      <point x="248" y="1388"/>
      <point x="248" y="1476" type="curve" smooth="yes"/>
      <point x="248" y="1570"/>
      <point x="278" y="1615"/>
      <point x="362" y="1615" type="curve" smooth="yes"/>
      <point x="441" y="1615"/>
      <point x="476" y="1574"/>
    </contour>
    <contour>
      <point x="110" y="1476" type="curve" smooth="yes"/>
      <point x="110" y="1322"/>
      <point x="206" y="1229"/>
      <point x="362" y="1229" type="curve" smooth="yes"/>
      <point x="518" y="1229"/>
      <point x="618" y="1322"/>
      <point x="618" y="1476" type="curve" smooth="yes"/>
      <point x="618" y="1630"/>
      <point x="519" y="1730"/>
      <point x="362" y="1730" type="curve" smooth="yes"/>
      <point x="207" y="1730"/>
      <point x="110" y="1630"/>
    </contour>
  </outline>
</glyph>
<glyph name="ogonek" format="1">
  <advance width="705"/>
  <unicode hex="02DB"/>
  <outline>
    <contour>
      <point x="416" y="0" type="move" name="_ogonek"/>
    </contour>
    <contour>
      <point x="368" y="0" type="line"/>
      <point x="203" y="-93"/>
      <point x="153" y="-214"/>
      <point x="153" y="-325" type="curve" smooth="yes"/>
      <point x="153" y="-451"/>
      <point x="263" y="-515"/>
      <point x="382" y="-515" type="curve" smooth="yes"/>
      <point x="443" y="-515"/>
      <point x="506" y="-499"/>
      <point x="560" y="-464" type="curve"/>
      <point x="539" y="-372" type="line"/>
      <point x="512" y="-381"/>
      <point x="483" y="-386"/>
      <point x="456" y="-386" type="curve" smooth="yes"/>
      <point x="389" y="-386"/>
      <point x="332" y="-355"/>
      <point x="332" y="-272" type="curve" smooth="yes"/>
      <point x="332" y="-176"/>
      <point x="383" y="-51"/>
      <point x="474" y="0" type="curve"/>
    </contour>
  </outline>
</glyph>
<glyph name="dblgravecmb" format="1">
  <advance width="1108"/>
  <unicode hex="030F"/>
  <outline>
    <contour>
      <point x="730" y="1091" type="move" name="_top"/>
    </contour>
    <contour>
      <point x="974" y="1325" type="curve"/>
      <point x="974" y="1325"/>
      <point x="986" y="1328"/>
      <point x="988" y="1328" type="curve"/>
      <point x="987" y="1330"/>
      <point x="988" y="1341"/>
      <point x="990" y="1341" type="curve"/>
      <point x="978" y="1351"/>
      <point x="734" y="1603"/>
      <point x="699" y="1633" type="curve" smooth="yes"/>
      <point x="676" y="1651"/>
      <point x="648" y="1668"/>
      <point x="616" y="1668" type="curve" smooth="yes"/>
      <point x="551" y="1668"/>
      <point x="515" y="1620"/>
      <point x="515" y="1571" type="curve" smooth="yes"/>
      <point x="515" y="1534"/>
      <point x="537" y="1491"/>
      <point x="585" y="1471" type="curve" smooth="yes"/>
      <point x="608" y="1463"/>
      <point x="979" y="1321"/>
    </contour>
    <contour>
      <point x="541" y="1325" type="curve"/>
      <point x="555" y="1328" type="line"/>
      <point x="555" y="1328"/>
      <point x="556" y="1340"/>
      <point x="557" y="1341" type="curve"/>
      <point x="546" y="1350"/>
      <point x="302" y="1603"/>
      <point x="266" y="1633" type="curve" smooth="yes"/>
      <point x="243" y="1651"/>
      <point x="216" y="1668"/>
      <point x="184" y="1668" type="curve" smooth="yes"/>
      <point x="119" y="1668"/>
      <point x="83" y="1620"/>
      <point x="83" y="1571" type="curve" smooth="yes"/>
      <point x="83" y="1534"/>
      <point x="104" y="1491"/>
      <point x="152" y="1471" type="curve" smooth="yes"/>
      <point x="175" y="1463"/>
      <point x="547" y="1321"/>
    </contour>
  </outline>
</glyph>
<glyph name="Delta" format="1">
  <advance width="1377"/>
  <unicode hex="0394"/>
  <outline>
    <contour>
      <point x="63" y="0" type="line"/>
      <point x="1314" y="0" type="line"/>
      <point x="758" y="1485" type="line"/>
      <point x="588" y="1485" type="line"/>
    </contour>
    <contour>
      <point x="224" y="139" type="line"/>
      <point x="620" y="1282" type="line"/>
      <point x="1018" y="139" type="line"/>
    </contour>
  </outline>
</glyph>
<glyph name="Sigma" format="1">
  <advance width="1186"/>
  <unicode hex="03A3"/>
  <outline>
    <contour>
      <point x="124" y="0" type="line"/>
      <point x="1107" y="0" type="line"/>
      <point x="1107" y="196" type="line"/>
      <point x="351" y="196" type="line"/>
      <point x="831" y="726" type="line"/>
      <point x="831" y="827" type="line"/>
      <point x="365" y="1291" type="line"/>
      <point x="1059" y="1291" type="line"/>
      <point x="1059" y="1485" type="line"/>
      <point x="124" y="1485" type="line"/>
      <point x="124" y="1292" type="line"/>
      <point x="615" y="772" type="line"/>
      <point x="124" y="215" type="line"/>
    </contour>
  </outline>
</glyph>
<glyph name="Omega" format="1">
  <advance width="1753"/>
  <unicode hex="03A9"/>
  <outline>
    <contour>
      <point x="103" y="0" type="line"/>
      <point x="793" y="0" type="line"/>
      <point x="793" y="124" type="line"/>
      <point x="504" y="233"/>
      <point x="347" y="510"/>
      <point x="347" y="776" type="curve" smooth="yes"/>
      <point x="347" y="1135"/>
      <point x="616" y="1307"/>
      <point x="877" y="1307" type="curve" smooth="yes"/>
      <point x="1138" y="1307"/>
      <point x="1407" y="1135"/>
      <point x="1407" y="776" type="curve" smooth="yes"/>
      <point x="1407" y="510"/>
      <point x="1249" y="233"/>
      <point x="961" y="124" type="curve"/>
      <point x="960" y="0" type="line"/>
      <point x="1650" y="0" type="line"/>
      <point x="1650" y="133" type="line"/>
      <point x="1235" y="133" type="line"/>
      <point x="1500" y="293"/>
      <point x="1624" y="545"/>
      <point x="1624" y="776" type="curve" smooth="yes"/>
      <point x="1624" y="1250"/>
      <point x="1251" y="1485"/>
      <point x="877" y="1485" type="curve" smooth="yes"/>
      <point x="502" y="1485"/>
      <point x="129" y="1250"/>
      <point x="129" y="776" type="curve" smooth="yes"/>
      <point x="129" y="545"/>
      <point x="253" y="293"/>
      <point x="518" y="133" type="curve"/>
      <point x="103" y="133" type="line"/>
    </contour>
  </outline>
</glyph>
<glyph name="mu" format="1">
  <advance width="1162"/>
  <unicode hex="03BC"/>
  <outline>
    <contour>
      <point x="819" y="1087" type="line"/>
      <point x="819" y="391" type="line" smooth="yes"/>
      <point x="819" y="359.385"/>
      <point x="820.498" y="329.227"/>
      <point x="820.498" y="301.245" type="curve" smooth="yes"/>
      <point x="820.498" y="192.04"/>
      <point x="797.686" y="116"/>
      <point x="574" y="116" type="curve" smooth="yes"/>
      <point x="375" y="116"/>
      <point x="341" y="147"/>
      <point x="335" y="290" type="curve"/>
      <point x="335" y="1087" type="line"/>
      <point x="150" y="1087" type="line"/>
      <point x="150" y="-345" type="line"/>
      <point x="335" y="-345" type="line"/>
      <point x="335" y="2" type="line"/>
      <point x="376.294" y="-10.2004"/>
      <point x="433.245" y="-18.2906"/>
      <point x="493.793" y="-18.2906" type="curve" smooth="yes"/>
      <point x="626.793" y="-18.2906"/>
      <point x="777.144" y="20.7454"/>
      <point x="817" y="141" type="curve"/>
      <point x="834" y="-1" type="line"/>
      <point x="1006" y="-1" type="line"/>
      <point x="1006" y="1087" type="line"/>
    </contour>
  </outline>
</glyph>
<glyph name="quotesinglbase" format="1">
  <advance width="418"/>
  <unicode hex="201A"/>
  <outline>
    <contour>
      <point x="221" y="-272" type="curve" smooth="yes"/>
      <point x="221" y="-272"/>
      <point x="292" y="96"/>
      <point x="292" y="178" type="curve" smooth="yes"/>
      <point x="292" y="258"/>
      <point x="264" y="297"/>
      <point x="209" y="297" type="curve" smooth="yes"/>
      <point x="137" y="297"/>
      <point x="125" y="258"/>
      <point x="125" y="162" type="curve" smooth="yes"/>
      <point x="125" y="84"/>
      <point x="198" y="-266"/>
      <point x="198" y="-266" type="curve" smooth="yes"/>
      <point x="198" y="-264"/>
      <point x="210" y="-266"/>
      <point x="210" y="-266" type="curve"/>
      <point x="210" y="-266"/>
      <point x="221" y="-270"/>
    </contour>
  </outline>
</glyph>
<glyph name="quotedblleft" format="1">
  <advance width="1040"/>
  <unicode hex="201C"/>
  <outline>
    <contour>
      <point x="746" y="1001" type="curve" smooth="yes"/>
      <point x="858" y="1001"/>
      <point x="902" y="1083"/>
      <point x="902" y="1132" type="curve" smooth="yes"/>
      <point x="902" y="1230.01"/>
      <point x="860.836" y="1279.01"/>
      <point x="775.597" y="1279.01" type="curve" smooth="yes"/>
      <point x="774.736" y="1279.01"/>
      <point x="773.87" y="1279.01"/>
      <point x="773" y="1279" type="curve"/>
      <point x="773" y="1385"/>
      <point x="825" y="1482"/>
      <point x="908" y="1482" type="curve"/>
      <point x="908" y="1548" type="line"/>
      <point x="745" y="1548"/>
      <point x="611" y="1378"/>
      <point x="611" y="1201" type="curve" smooth="yes"/>
      <point x="611" y="1089"/>
      <point x="663" y="1001"/>
    </contour>
    <contour>
      <point x="285" y="1001" type="curve" smooth="yes"/>
      <point x="371" y="1001"/>
      <point x="425" y="1078"/>
      <point x="425" y="1132" type="curve" smooth="yes"/>
      <point x="425" y="1230.01"/>
      <point x="381.876" y="1279.01"/>
      <point x="295.627" y="1279.01" type="curve" smooth="yes"/>
      <point x="294.756" y="1279.01"/>
      <point x="293.88" y="1279.01"/>
      <point x="293" y="1279" type="curve"/>
      <point x="292" y="1385"/>
      <point x="344" y="1482"/>
      <point x="431" y="1482" type="curve"/>
      <point x="431" y="1548" type="line"/>
      <point x="262" y="1548"/>
      <point x="134" y="1377"/>
      <point x="134" y="1201" type="curve" smooth="yes"/>
      <point x="134" y="1065"/>
      <point x="184" y="1001"/>
    </contour>
  </outline>
</glyph>
<glyph name="quotedblbase" format="1">
  <advance width="700"/>
  <unicode hex="201E"/>
  <outline>
    <contour>
      <point x="501" y="-272" type="curve" smooth="yes"/>
      <point x="501" y="-272"/>
      <point x="572" y="96"/>
      <point x="572" y="178" type="curve" smooth="yes"/>
      <point x="572" y="258"/>
      <point x="544" y="297"/>
      <point x="489" y="297" type="curve" smooth="yes"/>
      <point x="417" y="297"/>
      <point x="405" y="258"/>
      <point x="405" y="162" type="curve" smooth="yes"/>
      <point x="405" y="84"/>
      <point x="478" y="-266"/>
      <point x="478" y="-266" type="curve" smooth="yes"/>
      <point x="478" y="-264"/>
      <point x="490" y="-266"/>
      <point x="490" y="-266" type="curve"/>
      <point x="490" y="-266"/>
      <point x="501" y="-270"/>
    </contour>
    <contour>
      <point x="223" y="-272" type="curve" smooth="yes"/>
      <point x="222" y="-282"/>
      <point x="294" y="96"/>
      <point x="294" y="178" type="curve" smooth="yes"/>
      <point x="294" y="258"/>
      <point x="266" y="297"/>
      <point x="211" y="297" type="curve" smooth="yes"/>
      <point x="139" y="297"/>
      <point x="127" y="258"/>
      <point x="127" y="162" type="curve" smooth="yes"/>
      <point x="127" y="85"/>
      <point x="199" y="-255"/>
      <point x="201" y="-266" type="curve"/>
      <point x="201" y="-263.693"/>
      <point x="223" y="-267.124"/>
    </contour>
  </outline>
</glyph>
<glyph name="daggerdbl" format="1">
  <advance width="1194"/>
  <unicode hex="2021"/>
  <outline>
    <contour>
      <point x="598" y="-38" type="curve" smooth="yes"/>
      <point x="687" y="-38"/>
      <point x="744" y="19"/>
      <point x="744" y="113" type="curve" smooth="yes"/>
      <point x="744" y="190"/>
      <point x="699" y="338"/>
      <point x="661" y="466" type="curve"/>
      <point x="703" y="451"/>
      <point x="813" y="381"/>
      <point x="951" y="381" type="curve" smooth="yes"/>
      <point x="1016" y="381"/>
      <point x="1056" y="438"/>
      <point x="1056" y="499" type="curve" smooth="yes"/>
      <point x="1056" y="575"/>
      <point x="1010" y="616"/>
      <point x="929" y="616" type="curve" smooth="yes"/>
      <point x="885" y="616"/>
      <point x="796" y="590"/>
      <point x="661" y="533" type="curve"/>
      <point x="661" y="978" type="line"/>
      <point x="791" y="921"/>
      <point x="878" y="894"/>
      <point x="926" y="894" type="curve" smooth="yes"/>
      <point x="1004" y="894"/>
      <point x="1056" y="930"/>
      <point x="1056" y="997" type="curve" smooth="yes"/>
      <point x="1056" y="1087"/>
      <point x="1017" y="1131"/>
      <point x="938" y="1131" type="curve" smooth="yes"/>
      <point x="896" y="1131"/>
      <point x="805" y="1103"/>
      <point x="661" y="1044" type="curve"/>
      <point x="699" y="1191"/>
      <point x="744" y="1322"/>
      <point x="744" y="1399" type="curve" smooth="yes"/>
      <point x="744" y="1489"/>
      <point x="686" y="1548"/>
      <point x="598" y="1548" type="curve" smooth="yes"/>
      <point x="508" y="1548"/>
      <point x="451" y="1491"/>
      <point x="451" y="1397" type="curve" smooth="yes"/>
      <point x="451" y="1304"/>
      <point x="523" y="1086"/>
      <point x="534" y="1044" type="curve"/>
      <point x="401" y="1102"/>
      <point x="311" y="1131"/>
      <point x="267" y="1131" type="curve" smooth="yes"/>
      <point x="184" y="1131"/>
      <point x="138" y="1088"/>
      <point x="138" y="1011" type="curve" smooth="yes"/>
      <point x="138" y="931"/>
      <point x="181" y="894"/>
      <point x="267" y="894" type="curve" smooth="yes"/>
      <point x="311" y="894"/>
      <point x="401" y="921"/>
      <point x="534" y="978" type="curve"/>
      <point x="534" y="532" type="line"/>
      <point x="404" y="589"/>
      <point x="315" y="616"/>
      <point x="269" y="616" type="curve" smooth="yes"/>
      <point x="182" y="616"/>
      <point x="138" y="578"/>
      <point x="138" y="498" type="curve" smooth="yes"/>
      <point x="138" y="421"/>
      <point x="185" y="381"/>
      <point x="268" y="381" type="curve" smooth="yes"/>
      <point x="313" y="381"/>
      <point x="402" y="409"/>
      <point x="534" y="466" type="curve"/>
      <point x="476" y="262"/>
      <point x="451" y="191"/>
      <point x="451" y="111" type="curve" smooth="yes"/>
      <point x="451" y="19"/>
      <point x="509" y="-38"/>
    </contour>
  </outline>
</glyph>
<glyph name="bullet" format="1">
  <advance width="928"/>
  <unicode hex="2022"/>
  <outline>
    <contour>
      <point x="468" y="303" type="curve" smooth="yes"/>
      <point x="679" y="303"/>
      <point x="799" y="470"/>
      <point x="799" y="661" type="curve" smooth="yes"/>
      <point x="799" y="847"/>
      <point x="684" y="1019"/>
      <point x="470" y="1019" type="curve" smooth="yes"/>
      <point x="252" y="1019"/>
      <point x="127" y="838"/>
      <point x="127" y="659" type="curve" smooth="yes"/>
      <point x="127" y="476"/>
      <point x="255" y="303"/>
    </contour>
  </outline>
</glyph>
<glyph name="ellipsis" format="1">
  <advance width="1629"/>
  <unicode hex="2026"/>
  <outline>
    <contour>
      <point x="1364" y="-37" type="curve" smooth="yes"/>
      <point x="1452" y="-37"/>
      <point x="1502" y="29"/>
      <point x="1502" y="114" type="curve" smooth="yes"/>
      <point x="1502" y="189"/>
      <point x="1448" y="266"/>
      <point x="1379" y="266" type="curve" smooth="yes"/>
      <point x="1276" y="266"/>
      <point x="1226" y="206"/>
      <point x="1226" y="114" type="curve" smooth="yes"/>
      <point x="1226" y="24"/>
      <point x="1282" y="-37"/>
    </contour>
    <contour>
      <point x="816" y="-37" type="curve" smooth="yes"/>
      <point x="903" y="-37"/>
      <point x="953" y="29"/>
      <point x="953" y="114" type="curve" smooth="yes"/>
      <point x="953" y="205"/>
      <point x="896" y="266"/>
      <point x="814" y="266" type="curve" smooth="yes"/>
      <point x="731" y="266"/>
      <point x="676" y="199"/>
      <point x="676" y="115" type="curve" smooth="yes"/>
      <point x="676" y="34"/>
      <point x="732" y="-37"/>
    </contour>
    <contour>
      <point x="265" y="-37" type="curve" smooth="yes"/>
      <point x="353" y="-37"/>
      <point x="403" y="29"/>
      <point x="403" y="114" type="curve" smooth="yes"/>
      <point x="403" y="196"/>
      <point x="347" y="266"/>
      <point x="265" y="266" type="curve" smooth="yes"/>
      <point x="176" y="266"/>
      <point x="126" y="199"/>
      <point x="126" y="114" type="curve" smooth="yes"/>
      <point x="126" y="29"/>
      <point x="184" y="-37"/>
    </contour>
  </outline>
</glyph>
<glyph name="guilsinglleft" format="1">
  <advance width="823"/>
  <unicode hex="2039"/>
  <outline>
    <contour>
      <point x="690" y="255" type="curve" smooth="yes"/>
      <point x="728" y="255"/>
      <point x="755" y="287"/>
      <point x="755" y="322" type="curve" smooth="yes"/>
      <point x="755" y="340"/>
      <point x="747" y="360"/>
      <point x="730" y="377" type="curve" smooth="yes"/>
      <point x="314" y="781" type="line"/>
      <point x="730" y="1186" type="line" smooth="yes"/>
      <point x="750" y="1205"/>
      <point x="755" y="1228"/>
      <point x="755" y="1240" type="curve" smooth="yes"/>
      <point x="755" y="1277.66"/>
      <point x="732.221" y="1307.73"/>
      <point x="699.061" y="1307.73" type="curve" smooth="yes"/>
      <point x="696.12" y="1307.73"/>
      <point x="693.096" y="1307.49"/>
      <point x="690" y="1307" type="curve"/>
      <point x="686.8" y="1308.2"/>
      <point x="683.6" y="1308.76"/>
      <point x="680.368" y="1308.76" type="curve" smooth="yes"/>
      <point x="667.44" y="1308.76"/>
      <point x="654" y="1299.8"/>
      <point x="638" y="1287" type="curve" smooth="yes"/>
      <point x="137" y="896" type="line" smooth="yes"/>
      <point x="90" y="860"/>
      <point x="67" y="825"/>
      <point x="67" y="781" type="curve" smooth="yes"/>
      <point x="67" y="743"/>
      <point x="88" y="704"/>
      <point x="137" y="667" type="curve"/>
      <point x="638" y="275" type="line" smooth="yes"/>
      <point x="656" y="261"/>
      <point x="674" y="255"/>
    </contour>
  </outline>
</glyph>
<glyph name="trademark" format="1">
  <advance width="1225"/>
  <unicode hex="2122"/>
  <outline>
    <contour>
      <point x="202" y="880" type="line"/>
      <point x="323" y="880" type="line"/>
      <point x="323" y="1403" type="line"/>
      <point x="477" y="1403" type="line"/>
      <point x="477" y="1485" type="line"/>
      <point x="47" y="1485" type="line"/>
      <point x="47" y="1403" type="line"/>
      <point x="202" y="1403" type="line"/>
    </contour>
    <contour>
      <point x="588" y="880" type="line"/>
      <point x="689" y="880" type="line"/>
      <point x="689" y="1302" type="line"/>
      <point x="824" y="880" type="line"/>
      <point x="930" y="880" type="line"/>
      <point x="1067" y="1302" type="line"/>
      <point x="1067" y="880" type="line"/>
      <point x="1181" y="880" type="line"/>
      <point x="1181" y="1485" type="line"/>
      <point x="1039" y="1485" type="line"/>
      <point x="889" y="1029" type="line"/>
      <point x="730" y="1485" type="line"/>
      <point x="588" y="1485" type="line"/>
    </contour>
  </outline>
</glyph>
<glyph name="emptyset" format="1">
  <advance width="1697"/>
  <unicode hex="2205"/>
  <outline>
    <contour>
      <point x="847" y="109" type="curve" smooth="yes"/>
      <point x="723" y="109"/>
      <point x="610" y="142"/>
      <point x="518" y="204" type="curve"/>
      <point x="1274" y="1095" type="line"/>
      <point x="1370" y="988"/>
      <point x="1428" y="846"/>
      <point x="1428" y="695" type="curve" smooth="yes"/>
      <point x="1428" y="382"/>
      <point x="1177" y="109"/>
    </contour>
    <contour>
      <point x="431" y="276" type="line"/>
      <point x="330" y="378"/>
      <point x="270" y="524"/>
      <point x="270" y="695" type="curve" smooth="yes"/>
      <point x="270" y="1037"/>
      <point x="519" y="1285"/>
      <point x="848" y="1285" type="curve" smooth="yes"/>
      <point x="976" y="1285"/>
      <point x="1093" y="1243"/>
      <point x="1187" y="1174" type="curve"/>
    </contour>
    <contour>
      <point x="277" y="-81" type="line"/>
      <point x="427" y="97" type="line"/>
      <point x="547" y="18"/>
      <point x="692" y="-25"/>
      <point x="848" y="-25" type="curve" smooth="yes"/>
      <point x="1249" y="-25"/>
      <point x="1577" y="297"/>
      <point x="1577" y="696" type="curve" smooth="yes"/>
      <point x="1577" y="895"/>
      <point x="1496" y="1073"/>
      <point x="1367" y="1204" type="curve"/>
      <point x="1518" y="1382" type="line"/>
      <point x="1428" y="1460" type="line"/>
      <point x="1277" y="1281" type="line"/>
      <point x="1156" y="1367"/>
      <point x="1008" y="1419"/>
      <point x="848" y="1419" type="curve" smooth="yes"/>
      <point x="449" y="1419"/>
      <point x="121" y="1127"/>
      <point x="121" y="696" type="curve" smooth="yes"/>
      <point x="121" y="474"/>
      <point x="204" y="292"/>
      <point x="339" y="167" type="curve"/>
      <point x="194" y="-6" type="line"/>
    </contour>
  </outline>
</glyph>
<glyph name="product" format="1">
  <advance width="1357"/>
  <unicode hex="220F"/>
  <outline>
    <contour>
      <point x="352" y="1319" type="line"/>
      <point x="1005" y="1319" type="line"/>
      <point x="1005" y="7" type="line"/>
      <point x="1225" y="7" type="line"/>
      <point x="1225" y="1485" type="line"/>
      <point x="133" y="1485" type="line"/>
      <point x="133" y="7" type="line"/>
      <point x="352" y="7" type="line"/>
    </contour>
  </outline>
</glyph>
<glyph name="minus" format="1">
  <advance width="863"/>
  <unicode hex="2212"/>
  <outline>
    <contour>
      <point x="48" y="531" type="line"/>
      <point x="820" y="531" type="line"/>
      <point x="820" y="665" type="line"/>
      <point x="48" y="665" type="line"/>
    </contour>
  </outline>
</glyph>
<glyph name="radical" format="1">
  <advance width="1346"/>
  <unicode hex="221A"/>
  <outline>
    <contour>
      <point x="495" y="0" type="line"/>
      <point x="644" y="0" type="line"/>
      <point x="1277" y="1464" type="line"/>
      <point x="1047" y="1464" type="line"/>
      <point x="551" y="251" type="line"/>
      <point x="334" y="658" type="line"/>
      <point x="109" y="658" type="line"/>
    </contour>
  </outline>
</glyph>
<glyph name="lozenge" format="1">
  <advance width="1045"/>
  <unicode hex="25CA"/>
  <outline>
    <contour>
      <point x="524" y="233" type="line"/>
      <point x="252" y="693" type="line"/>
      <point x="524" y="1156" type="line"/>
      <point x="800" y="693" type="line"/>
    </contour>
    <contour>
      <point x="450" y="0" type="line"/>
      <point x="584" y="0" type="line"/>
      <point x="1018" y="693" type="line"/>
      <point x="584" y="1388" type="line"/>
      <point x="450" y="1388" type="line"/>
      <point x="28" y="693" type="line"/>
    </contour>
  </outline>
</glyph>
